<mxfile host="Electron" modified="2024-05-03T15:13:29.106Z" agent="Mozilla/5.0 (Windows NT 10.0; Win64; x64) AppleWebKit/537.36 (KHTML, like Gecko) draw.io/24.2.5 Chrome/120.0.6099.109 Electron/28.1.0 Safari/537.36" etag="wvwuR6rfqmUSBdWi4omw" version="24.2.5" type="device">
  <diagram name="Page-1" id="AIda5HVUl_iWoyiOEus1">
    <mxGraphModel dx="521" dy="303" grid="1" gridSize="10" guides="1" tooltips="1" connect="1" arrows="1" fold="1" page="1" pageScale="1" pageWidth="850" pageHeight="1100" math="0" shadow="0">
      <root>
        <mxCell id="0" />
        <mxCell id="1" parent="0" />
        <mxCell id="mTB4lmzVkbTxNBnmcwLe-4" style="edgeStyle=orthogonalEdgeStyle;rounded=0;orthogonalLoop=1;jettySize=auto;html=1;entryX=0.667;entryY=1.015;entryDx=0;entryDy=0;entryPerimeter=0;" parent="1" source="9e8fiXm37wEuwEzVcO6m-2" target="mTB4lmzVkbTxNBnmcwLe-7" edge="1">
          <mxGeometry relative="1" as="geometry">
            <mxPoint x="250" y="190" as="targetPoint" />
            <Array as="points">
              <mxPoint x="390" y="240" />
              <mxPoint x="240" y="240" />
            </Array>
          </mxGeometry>
        </mxCell>
        <mxCell id="mTB4lmzVkbTxNBnmcwLe-10" value="&lt;font style=&quot;font-size: 9px;&quot;&gt;interruption&lt;/font&gt;" style="edgeLabel;html=1;align=center;verticalAlign=middle;resizable=0;points=[];fontSize=9;" parent="mTB4lmzVkbTxNBnmcwLe-4" vertex="1" connectable="0">
          <mxGeometry x="-0.2372" relative="1" as="geometry">
            <mxPoint x="-28" as="offset" />
          </mxGeometry>
        </mxCell>
        <mxCell id="mTB4lmzVkbTxNBnmcwLe-16" style="edgeStyle=orthogonalEdgeStyle;rounded=0;orthogonalLoop=1;jettySize=auto;html=1;entryX=0.5;entryY=1;entryDx=0;entryDy=0;" parent="1" source="9e8fiXm37wEuwEzVcO6m-2" target="mTB4lmzVkbTxNBnmcwLe-7" edge="1">
          <mxGeometry relative="1" as="geometry">
            <Array as="points">
              <mxPoint x="470" y="260" />
              <mxPoint x="230" y="260" />
            </Array>
          </mxGeometry>
        </mxCell>
        <mxCell id="mTB4lmzVkbTxNBnmcwLe-17" value="instruction" style="edgeLabel;html=1;align=center;verticalAlign=middle;resizable=0;points=[];fontSize=9;" parent="mTB4lmzVkbTxNBnmcwLe-16" vertex="1" connectable="0">
          <mxGeometry x="-0.0771" relative="1" as="geometry">
            <mxPoint as="offset" />
          </mxGeometry>
        </mxCell>
        <mxCell id="9e8fiXm37wEuwEzVcO6m-2" value="Data Path" style="rounded=0;whiteSpace=wrap;html=1;" parent="1" vertex="1">
          <mxGeometry x="350" y="20" width="160" height="200" as="geometry" />
        </mxCell>
        <mxCell id="mTB4lmzVkbTxNBnmcwLe-2" style="edgeStyle=orthogonalEdgeStyle;rounded=0;orthogonalLoop=1;jettySize=auto;html=1;entryX=1;entryY=0.5;entryDx=0;entryDy=0;" parent="1" source="9e8fiXm37wEuwEzVcO6m-7" target="9e8fiXm37wEuwEzVcO6m-6" edge="1">
          <mxGeometry relative="1" as="geometry">
            <mxPoint x="229.5" y="50.03000000000003" as="targetPoint" />
            <Array as="points">
              <mxPoint x="150" y="120" />
              <mxPoint x="150" y="120" />
            </Array>
          </mxGeometry>
        </mxCell>
        <mxCell id="mTB4lmzVkbTxNBnmcwLe-9" style="edgeStyle=orthogonalEdgeStyle;rounded=0;orthogonalLoop=1;jettySize=auto;html=1;entryX=0;entryY=0.5;entryDx=0;entryDy=0;" parent="1" source="9e8fiXm37wEuwEzVcO6m-7" target="9e8fiXm37wEuwEzVcO6m-2" edge="1">
          <mxGeometry relative="1" as="geometry" />
        </mxCell>
        <mxCell id="mTB4lmzVkbTxNBnmcwLe-13" value="&lt;font style=&quot;font-size: 9px;&quot;&gt;signal&lt;/font&gt;" style="edgeLabel;html=1;align=center;verticalAlign=middle;resizable=0;points=[];fontSize=9;" parent="mTB4lmzVkbTxNBnmcwLe-9" vertex="1" connectable="0">
          <mxGeometry x="-0.26" relative="1" as="geometry">
            <mxPoint x="8" as="offset" />
          </mxGeometry>
        </mxCell>
        <mxCell id="9e8fiXm37wEuwEzVcO6m-7" value="Instruction Decoder" style="whiteSpace=wrap;html=1;" parent="1" vertex="1">
          <mxGeometry x="170" y="90" width="120" height="60" as="geometry" />
        </mxCell>
        <mxCell id="mTB4lmzVkbTxNBnmcwLe-6" style="edgeStyle=orthogonalEdgeStyle;rounded=0;orthogonalLoop=1;jettySize=auto;html=1;entryX=0.331;entryY=1.004;entryDx=0;entryDy=0;entryPerimeter=0;" parent="1" source="9e8fiXm37wEuwEzVcO6m-6" target="mTB4lmzVkbTxNBnmcwLe-7" edge="1">
          <mxGeometry relative="1" as="geometry">
            <mxPoint x="209" y="190" as="targetPoint" />
            <Array as="points">
              <mxPoint x="40" y="120" />
              <mxPoint x="40" y="240" />
              <mxPoint x="220" y="240" />
            </Array>
          </mxGeometry>
        </mxCell>
        <mxCell id="9e8fiXm37wEuwEzVcO6m-6" value="Tick&lt;div&gt;Ð¡ounter&lt;/div&gt;" style="whiteSpace=wrap;html=1;" parent="1" vertex="1">
          <mxGeometry x="70" y="90" width="60" height="60" as="geometry" />
        </mxCell>
        <mxCell id="mTB4lmzVkbTxNBnmcwLe-8" style="edgeStyle=orthogonalEdgeStyle;rounded=0;orthogonalLoop=1;jettySize=auto;html=1;entryX=0.5;entryY=1;entryDx=0;entryDy=0;" parent="1" source="mTB4lmzVkbTxNBnmcwLe-7" target="9e8fiXm37wEuwEzVcO6m-7" edge="1">
          <mxGeometry relative="1" as="geometry" />
        </mxCell>
        <mxCell id="mTB4lmzVkbTxNBnmcwLe-7" value="MUX" style="rounded=0;whiteSpace=wrap;html=1;" parent="1" vertex="1">
          <mxGeometry x="200" y="180" width="60" height="30" as="geometry" />
        </mxCell>
        <mxCell id="mTB4lmzVkbTxNBnmcwLe-18" value="" style="endArrow=classic;html=1;rounded=0;strokeColor=#666666;exitX=0;exitY=0.502;exitDx=0;exitDy=0;exitPerimeter=0;entryX=1.006;entryY=0.156;entryDx=0;entryDy=0;entryPerimeter=0;" parent="1" edge="1">
          <mxGeometry width="50" height="50" relative="1" as="geometry">
            <mxPoint x="269" y="194.82999999999993" as="sourcePoint" />
            <mxPoint x="260" y="194.82999999999993" as="targetPoint" />
          </mxGeometry>
        </mxCell>
        <mxCell id="mTB4lmzVkbTxNBnmcwLe-19" value="&lt;font style=&quot;font-size: 10px;&quot;&gt;sel&lt;/font&gt;" style="text;html=1;align=center;verticalAlign=middle;resizable=0;points=[];autosize=1;strokeColor=none;fillColor=none;fontColor=#666666;" parent="1" vertex="1">
          <mxGeometry x="260" y="180" width="40" height="30" as="geometry" />
        </mxCell>
        <mxCell id="RNlLaQ3Ap9gxv5O199Xz-1" value="" style="endArrow=none;dashed=1;html=1;dashPattern=1 3;strokeWidth=2;rounded=0;" edge="1" parent="1">
          <mxGeometry width="50" height="50" relative="1" as="geometry">
            <mxPoint x="600" y="10" as="sourcePoint" />
            <mxPoint x="600" y="10" as="targetPoint" />
          </mxGeometry>
        </mxCell>
      </root>
    </mxGraphModel>
  </diagram>
</mxfile>
